<svg width="83" height="22" viewBox="0 0 83 22" fill="none" xmlns="http://www.w3.org/2000/svg">
<path d="M3.49316 22H0.680664V0.671875H3.49316V22ZM25.041 22H22.2139L11.4766 5.56445V22H8.64941V0.671875H11.4766L22.2432 17.1807V0.671875H25.041V22ZM30.0361 22V0.671875H36.0566C37.9121 0.671875 39.5527 1.08203 40.9785 1.90234C42.4043 2.72266 43.5029 3.88965 44.2744 5.40332C45.0557 6.91699 45.4512 8.65527 45.4609 10.6182V11.9805C45.4609 13.9922 45.0703 15.7549 44.2891 17.2686C43.5176 18.7822 42.4092 19.9443 40.9639 20.7549C39.5283 21.5654 37.8535 21.9805 35.9395 22H30.0361ZM32.8486 2.98633V19.7002H35.8076C37.9756 19.7002 39.6602 19.0264 40.8613 17.6787C42.0723 16.3311 42.6777 14.4121 42.6777 11.9219V10.6768C42.6777 8.25488 42.1064 6.375 40.9639 5.03711C39.8311 3.68945 38.2197 3.00586 36.1299 2.98633H32.8486ZM61.7793 12.1416H52.5361V19.7002H63.2734V22H49.7236V0.671875H63.127V2.98633H52.5361V9.8418H61.7793V12.1416ZM74.5967 13.3721H69.5869V22H66.7598V0.671875H73.8203C76.2227 0.671875 78.0684 1.21875 79.3574 2.3125C80.6562 3.40625 81.3057 4.99805 81.3057 7.08789C81.3057 8.41602 80.9443 9.57324 80.2217 10.5596C79.5088 11.5459 78.5127 12.2832 77.2334 12.7715L82.2432 21.8242V22H79.2256L74.5967 13.3721ZM69.5869 11.0723H73.9082C75.3047 11.0723 76.4131 10.7109 77.2334 9.98828C78.0635 9.26562 78.4785 8.29883 78.4785 7.08789C78.4785 5.76953 78.083 4.75879 77.292 4.05566C76.5107 3.35254 75.3779 2.99609 73.8936 2.98633H69.5869V11.0723Z" fill="black"/>
</svg>
